<svg width="295" height="94" viewBox="0 0 295 94" fill="none" xmlns="http://www.w3.org/2000/svg">
<path d="M213.891 49.3092C213.891 50.1092 213.841 50.9426 213.741 51.8092H194.391C194.525 53.5426 195.075 54.8759 196.041 55.8092C197.041 56.7092 198.258 57.1592 199.691 57.1592C201.825 57.1592 203.308 56.2592 204.141 54.4592H213.241C212.775 56.2926 211.925 57.9426 210.691 59.4092C209.491 60.8759 207.975 62.0259 206.141 62.8592C204.308 63.6926 202.258 64.1092 199.991 64.1092C197.258 64.1092 194.825 63.5259 192.691 62.3592C190.558 61.1926 188.891 59.5259 187.691 57.3592C186.491 55.1926 185.891 52.6592 185.891 49.7592C185.891 46.8592 186.475 44.3259 187.641 42.1592C188.841 39.9926 190.508 38.3259 192.641 37.1592C194.775 35.9926 197.225 35.4092 199.991 35.4092C202.691 35.4092 205.091 35.9759 207.191 37.1092C209.291 38.2426 210.925 39.8592 212.091 41.9592C213.291 44.0592 213.891 46.5092 213.891 49.3092ZM205.141 47.0592C205.141 45.5926 204.641 44.4259 203.641 43.5592C202.641 42.6926 201.391 42.2592 199.891 42.2592C198.458 42.2592 197.241 42.6759 196.241 43.5092C195.275 44.3426 194.675 45.5259 194.441 47.0592H205.141ZM223.952 26.7092V63.7092H215.402V26.7092H223.952ZM235.698 26.7092V63.7092H227.148V26.7092H235.698ZM266.444 35.8092V63.7092H257.894V59.9092C257.027 61.1426 255.844 62.1426 254.344 62.9092C252.877 63.6426 251.244 64.0092 249.444 64.0092C247.311 64.0092 245.427 63.5426 243.794 62.6092C242.161 61.6426 240.894 60.2592 239.994 58.4592C239.094 56.6592 238.644 54.5426 238.644 52.1092V35.8092H247.144V50.9592C247.144 52.8259 247.627 54.2759 248.594 55.3092C249.561 56.3426 250.861 56.8592 252.494 56.8592C254.161 56.8592 255.477 56.3426 256.444 55.3092C257.411 54.2759 257.894 52.8259 257.894 50.9592V35.8092H266.444ZM280.936 64.1092C278.502 64.1092 276.336 63.6926 274.436 62.8592C272.536 62.0259 271.036 60.8926 269.936 59.4592C268.836 57.9926 268.219 56.3592 268.086 54.5592H276.536C276.636 55.5259 277.086 56.3092 277.886 56.9092C278.686 57.5092 279.669 57.8092 280.836 57.8092C281.902 57.8092 282.719 57.6092 283.286 57.2092C283.886 56.7759 284.186 56.2259 284.186 55.5592C284.186 54.7592 283.769 54.1759 282.936 53.8092C282.102 53.4092 280.752 52.9759 278.886 52.5092C276.886 52.0426 275.219 51.5592 273.886 51.0592C272.552 50.5259 271.402 49.7092 270.436 48.6092C269.469 47.4759 268.986 45.9592 268.986 44.0592C268.986 42.4592 269.419 41.0092 270.286 39.7092C271.186 38.3759 272.486 37.3259 274.186 36.5592C275.919 35.7926 277.969 35.4092 280.336 35.4092C283.836 35.4092 286.586 36.2759 288.586 38.0092C290.619 39.7426 291.786 42.0426 292.086 44.9092H284.186C284.052 43.9426 283.619 43.1759 282.886 42.6092C282.186 42.0426 281.252 41.7592 280.086 41.7592C279.086 41.7592 278.319 41.9592 277.786 42.3592C277.252 42.7259 276.986 43.2426 276.986 43.9092C276.986 44.7092 277.402 45.3092 278.236 45.7092C279.102 46.1092 280.436 46.5092 282.236 46.9092C284.302 47.4426 285.986 47.9759 287.286 48.5092C288.586 49.0092 289.719 49.8426 290.686 51.0092C291.686 52.1426 292.202 53.6759 292.236 55.6092C292.236 57.2426 291.769 58.7092 290.836 60.0092C289.936 61.2759 288.619 62.2759 286.886 63.0092C285.186 63.7426 283.202 64.1092 280.936 64.1092Z" fill="#262626"/>
<path d="M106.841 28.6092V35.4592H97.5414V63.7092H88.9914V35.4592H79.6914V28.6092H106.841ZM106.432 49.7092C106.432 46.8426 106.966 44.3259 108.032 42.1592C109.132 39.9926 110.616 38.3259 112.482 37.1592C114.349 35.9926 116.432 35.4092 118.732 35.4092C120.699 35.4092 122.416 35.8092 123.882 36.6092C125.382 37.4092 126.532 38.4592 127.332 39.7592V35.8092H135.882V63.7092H127.332V59.7592C126.499 61.0592 125.332 62.1092 123.832 62.9092C122.366 63.7092 120.649 64.1092 118.682 64.1092C116.416 64.1092 114.349 63.5259 112.482 62.3592C110.616 61.1592 109.132 59.4759 108.032 57.3092C106.966 55.1092 106.432 52.5759 106.432 49.7092ZM127.332 49.7592C127.332 47.6259 126.732 45.9426 125.532 44.7092C124.366 43.4759 122.932 42.8592 121.232 42.8592C119.532 42.8592 118.082 43.4759 116.882 44.7092C115.716 45.9092 115.132 47.5759 115.132 49.7092C115.132 51.8426 115.716 53.5426 116.882 54.8092C118.082 56.0426 119.532 56.6592 121.232 56.6592C122.932 56.6592 124.366 56.0426 125.532 54.8092C126.732 53.5759 127.332 51.8926 127.332 49.7592ZM150.418 64.1092C147.985 64.1092 145.818 63.6926 143.918 62.8592C142.018 62.0259 140.518 60.8926 139.418 59.4592C138.318 57.9926 137.701 56.3592 137.568 54.5592H146.018C146.118 55.5259 146.568 56.3092 147.368 56.9092C148.168 57.5092 149.151 57.8092 150.318 57.8092C151.385 57.8092 152.201 57.6092 152.768 57.2092C153.368 56.7759 153.668 56.2259 153.668 55.5592C153.668 54.7592 153.251 54.1759 152.418 53.8092C151.585 53.4092 150.235 52.9759 148.368 52.5092C146.368 52.0426 144.701 51.5592 143.368 51.0592C142.035 50.5259 140.885 49.7092 139.918 48.6092C138.951 47.4759 138.468 45.9592 138.468 44.0592C138.468 42.4592 138.901 41.0092 139.768 39.7092C140.668 38.3759 141.968 37.3259 143.668 36.5592C145.401 35.7926 147.451 35.4092 149.818 35.4092C153.318 35.4092 156.068 36.2759 158.068 38.0092C160.101 39.7426 161.268 42.0426 161.568 44.9092H153.668C153.535 43.9426 153.101 43.1759 152.368 42.6092C151.668 42.0426 150.735 41.7592 149.568 41.7592C148.568 41.7592 147.801 41.9592 147.268 42.3592C146.735 42.7259 146.468 43.2426 146.468 43.9092C146.468 44.7092 146.885 45.3092 147.718 45.7092C148.585 46.1092 149.918 46.5092 151.718 46.9092C153.785 47.4426 155.468 47.9759 156.768 48.5092C158.068 49.0092 159.201 49.8426 160.168 51.0092C161.168 52.1426 161.685 53.6759 161.718 55.6092C161.718 57.2426 161.251 58.7092 160.318 60.0092C159.418 61.2759 158.101 62.2759 156.368 63.0092C154.668 63.7426 152.685 64.1092 150.418 64.1092ZM180.999 63.7092L172.499 52.0092V63.7092H163.949V26.7092H172.499V47.1592L180.949 35.8092H191.499L179.899 49.8092L191.599 63.7092H180.999Z" fill="#262626"/>
<rect x="51.567" y="36.862" width="7.43541" height="42.6331" rx="3.7177" transform="rotate(45 51.567 36.862)" fill="#262626"/>
<rect x="55.5545" y="38.1312" width="7.43541" height="29.7789" rx="3.7177" transform="rotate(90 55.5545 38.1312)" fill="#262626"/>
<rect width="7.43541" height="29.7789" rx="3.7177" transform="matrix(-1 0 0 1 55.555 38.1317)" fill="#262626"/>
<rect x="67.1962" y="21.231" width="7.43668" height="19.101" rx="3.71834" transform="rotate(45 67.1962 21.231)" fill="#FF6D00"/>
<rect x="79.8077" y="41.7545" width="7.43668" height="19.101" rx="3.71834" transform="rotate(90 79.8077 41.7545)" fill="#FF6D00"/>
<rect x="75.141" y="65.4002" width="7.43668" height="19.101" rx="3.71834" transform="rotate(135 75.141 65.4002)" fill="#FF6D00"/>
<rect width="7.43668" height="19.101" rx="3.71834" transform="matrix(-1 0 0 1 51.9317 13.8785)" fill="#FF6D00"/>
<rect width="7.43668" height="19.101" rx="3.71834" transform="matrix(-0.707107 0.707107 0.707107 0.707107 28.2859 18.5452)" fill="#FF6D00"/>
</svg>
