<svg width="230" height="76" viewBox="0 0 230 76" fill="none" xmlns="http://www.w3.org/2000/svg">
<path d="M137.957 41.453C137.957 42.253 137.907 43.0863 137.807 43.953H118.457C118.59 45.6863 119.14 47.0197 120.107 47.953C121.107 48.853 122.323 49.303 123.757 49.303C125.89 49.303 127.373 48.403 128.207 46.603H137.307C136.84 48.4363 135.99 50.0863 134.757 51.553C133.557 53.0197 132.04 54.1697 130.207 55.003C128.373 55.8363 126.323 56.253 124.057 56.253C121.323 56.253 118.89 55.6697 116.757 54.503C114.623 53.3363 112.957 51.6697 111.757 49.503C110.557 47.3363 109.957 44.803 109.957 41.903C109.957 39.003 110.54 36.4697 111.707 34.303C112.907 32.1363 114.573 30.4697 116.707 29.303C118.84 28.1363 121.29 27.553 124.057 27.553C126.757 27.553 129.157 28.1197 131.257 29.253C133.357 30.3863 134.99 32.003 136.157 34.103C137.357 36.203 137.957 38.653 137.957 41.453ZM129.207 39.203C129.207 37.7363 128.707 36.5697 127.707 35.703C126.707 34.8363 125.457 34.403 123.957 34.403C122.523 34.403 121.307 34.8197 120.307 35.653C119.34 36.4863 118.74 37.6697 118.507 39.203H129.207ZM148.017 18.853V55.853H139.467V18.853H148.017ZM159.763 18.853V55.853H151.213V18.853H159.763ZM190.509 27.953V55.853H181.959V52.053C181.093 53.2863 179.909 54.2863 178.409 55.053C176.943 55.7863 175.309 56.153 173.509 56.153C171.376 56.153 169.493 55.6863 167.859 54.753C166.226 53.7863 164.959 52.403 164.059 50.603C163.159 48.803 162.709 46.6863 162.709 44.253V27.953H171.209V43.103C171.209 44.9697 171.693 46.4197 172.659 47.453C173.626 48.4863 174.926 49.003 176.559 49.003C178.226 49.003 179.543 48.4863 180.509 47.453C181.476 46.4197 181.959 44.9697 181.959 43.103V27.953H190.509ZM205.001 56.253C202.567 56.253 200.401 55.8363 198.501 55.003C196.601 54.1697 195.101 53.0363 194.001 51.603C192.901 50.1363 192.284 48.503 192.151 46.703H200.601C200.701 47.6697 201.151 48.453 201.951 49.053C202.751 49.653 203.734 49.953 204.901 49.953C205.967 49.953 206.784 49.753 207.351 49.353C207.951 48.9197 208.251 48.3697 208.251 47.703C208.251 46.903 207.834 46.3197 207.001 45.953C206.167 45.553 204.817 45.1197 202.951 44.653C200.951 44.1863 199.284 43.703 197.951 43.203C196.617 42.6697 195.467 41.853 194.501 40.753C193.534 39.6197 193.051 38.103 193.051 36.203C193.051 34.603 193.484 33.153 194.351 31.853C195.251 30.5197 196.551 29.4697 198.251 28.703C199.984 27.9363 202.034 27.553 204.401 27.553C207.901 27.553 210.651 28.4197 212.651 30.153C214.684 31.8863 215.851 34.1863 216.151 37.053H208.251C208.117 36.0863 207.684 35.3197 206.951 34.753C206.251 34.1863 205.317 33.903 204.151 33.903C203.151 33.903 202.384 34.103 201.851 34.503C201.317 34.8697 201.051 35.3863 201.051 36.053C201.051 36.853 201.467 37.453 202.301 37.853C203.167 38.253 204.501 38.653 206.301 39.053C208.367 39.5863 210.051 40.1197 211.351 40.653C212.651 41.153 213.784 41.9863 214.751 43.153C215.751 44.2863 216.267 45.8197 216.301 47.753C216.301 49.3863 215.834 50.853 214.901 52.153C214.001 53.4197 212.684 54.4197 210.951 55.153C209.251 55.8863 207.267 56.253 205.001 56.253Z" fill="#262626"/>
<path d="M222.532 56.253C221.032 56.253 219.798 55.8197 218.832 54.953C217.898 54.053 217.432 52.953 217.432 51.653C217.432 50.3197 217.898 49.203 218.832 48.303C219.798 47.403 221.032 46.953 222.532 46.953C223.998 46.953 225.198 47.403 226.132 48.303C227.098 49.203 227.582 50.3197 227.582 51.653C227.582 52.953 227.098 54.053 226.132 54.953C225.198 55.8197 223.998 56.253 222.532 56.253Z" fill="#FF6D00"/>
<path d="M28.9066 20.753V27.603H19.6066V55.853H11.0566V27.603H1.75664V20.753H28.9066ZM28.4977 41.853C28.4977 38.9863 29.031 36.4697 30.0977 34.303C31.1977 32.1363 32.681 30.4697 34.5477 29.303C36.4143 28.1363 38.4977 27.553 40.7977 27.553C42.7643 27.553 44.481 27.953 45.9477 28.753C47.4477 29.553 48.5977 30.603 49.3977 31.903V27.953H57.9477V55.853H49.3977V51.903C48.5643 53.203 47.3977 54.253 45.8977 55.053C44.431 55.853 42.7143 56.253 40.7477 56.253C38.481 56.253 36.4143 55.6697 34.5477 54.503C32.681 53.303 31.1977 51.6197 30.0977 49.453C29.031 47.253 28.4977 44.7197 28.4977 41.853ZM49.3977 41.903C49.3977 39.7697 48.7977 38.0863 47.5977 36.853C46.431 35.6197 44.9977 35.003 43.2977 35.003C41.5977 35.003 40.1477 35.6197 38.9477 36.853C37.781 38.053 37.1977 39.7197 37.1977 41.853C37.1977 43.9863 37.781 45.6863 38.9477 46.953C40.1477 48.1863 41.5977 48.803 43.2977 48.803C44.9977 48.803 46.431 48.1863 47.5977 46.953C48.7977 45.7197 49.3977 44.0363 49.3977 41.903ZM72.4832 56.253C70.0499 56.253 67.8832 55.8363 65.9832 55.003C64.0832 54.1697 62.5832 53.0363 61.4832 51.603C60.3832 50.1363 59.7665 48.503 59.6332 46.703H68.0832C68.1832 47.6697 68.6332 48.453 69.4332 49.053C70.2332 49.653 71.2165 49.953 72.3832 49.953C73.4499 49.953 74.2665 49.753 74.8332 49.353C75.4332 48.9197 75.7332 48.3697 75.7332 47.703C75.7332 46.903 75.3165 46.3197 74.4832 45.953C73.6499 45.553 72.2999 45.1197 70.4332 44.653C68.4332 44.1863 66.7665 43.703 65.4332 43.203C64.0999 42.6697 62.9499 41.853 61.9832 40.753C61.0165 39.6197 60.5332 38.103 60.5332 36.203C60.5332 34.603 60.9665 33.153 61.8332 31.853C62.7332 30.5197 64.0332 29.4697 65.7332 28.703C67.4665 27.9363 69.5165 27.553 71.8832 27.553C75.3832 27.553 78.1332 28.4197 80.1332 30.153C82.1665 31.8863 83.3332 34.1863 83.6332 37.053H75.7332C75.5999 36.0863 75.1665 35.3197 74.4332 34.753C73.7332 34.1863 72.7999 33.903 71.6332 33.903C70.6332 33.903 69.8665 34.103 69.3332 34.503C68.7999 34.8697 68.5332 35.3863 68.5332 36.053C68.5332 36.853 68.9499 37.453 69.7832 37.853C70.6499 38.253 71.9832 38.653 73.7832 39.053C75.8499 39.5863 77.5332 40.1197 78.8332 40.653C80.1332 41.153 81.2665 41.9863 82.2332 43.153C83.2332 44.2863 83.7499 45.8197 83.7832 47.753C83.7832 49.3863 83.3165 50.853 82.3832 52.153C81.4832 53.4197 80.1665 54.4197 78.4332 55.153C76.7332 55.8863 74.7499 56.253 72.4832 56.253ZM103.064 55.853L94.5641 44.153V55.853H86.0141V18.853H94.5641V39.303L103.014 27.953H113.564L101.964 41.953L113.664 55.853H103.064Z" fill="#262626"/>
</svg>
