<svg width="50" height="48" viewBox="0 0 50 48" fill="none" xmlns="http://www.w3.org/2000/svg">
<rect x="22.255" y="16.546" width="5.44907" height="31.2438" rx="2.72453" fill="#262626"/>
<rect x="24.9791" y="15.1373" width="5.44907" height="21.8236" rx="2.72453" transform="rotate(45 24.9791 15.1373)" fill="#262626"/>
<rect width="5.44907" height="21.8236" rx="2.72453" transform="matrix(-0.707107 0.707107 0.707107 0.707107 24.9796 15.1373)" fill="#262626"/>
<rect x="22.2541" y="0.346802" width="5.45" height="13.9983" rx="2.725" fill="#FF6D00"/>
<rect x="39.4248" y="4.44681" width="5.45" height="13.9983" rx="2.725" transform="rotate(45 39.4248 4.44681)" fill="#FF6D00"/>
<rect x="49.2599" y="19.1184" width="5.45" height="13.9983" rx="2.725" transform="rotate(90 49.2599 19.1184)" fill="#FF6D00"/>
<rect width="5.45" height="13.9983" rx="2.725" transform="matrix(-0.707107 0.707107 0.707107 0.707107 10.5338 4.44681)" fill="#FF6D00"/>
<rect width="5.45" height="13.9983" rx="2.725" transform="matrix(1.39071e-07 1 1 -1.39071e-07 0.698761 19.1184)" fill="#FF6D00"/>
</svg>
